<svg xmlns="http://www.w3.org/2000/svg" enable-background="new 0 0 24 24" viewBox="0 0 24 24" id="Image"><path fill="#d8e7ff" d="M16.52 12.906a2.845 2.845 0 0 0-3.93 0l-1.41 1.41a.967.967 0 0 0-.29.7.99.99 0 0 0 .29.71l6.23 6.23a2.894 2.894 0 0 0 1.84-.99c.483-.542.75-1.244.75-1.97v-2.62l-3.48-3.47z" class="colord8d8ff svgShape"></path><path fill="#3b82f6" d="m11.89 13.606-2.48-2.49a2.855 2.855 0 0 0-3.93 0L2 14.596v4.4a3.009 3.009 0 0 0 3 3h12c.138.002.275-.011.41-.04a2.894 2.894 0 0 0 1.84-.99l-7.36-7.36zM19 8.004a1 1 0 0 1 0-2 1 1 0 1 0-.867-1.5 1 1 0 1 1-1.73-1.001A3 3 0 1 1 19 8.003zm0 3.006a1.04 1.04 0 0 1-.71-.3 1.006 1.006 0 0 1 0-1.41c.047-.046.097-.09.15-.13l.18-.09.18-.06c.195-.036.396-.015.58.06.374.153.619.516.62.92-.002.265-.106.52-.29.71a1.012 1.012 0 0 1-.33.22 1 1 0 0 1-.38.08z" class="color6563ff svgShape"></path><path fill="#b1cfff" d="M19 8.004a1 1 0 1 1 0-2c.273 0 .52-.111.7-.289a3.007 3.007 0 0 0-1.41-1.414.998.998 0 0 0-.157.204 1 1 0 0 1-1.366.364.987.987 0 0 1-.484-.873H5a3.009 3.009 0 0 0-3 3v7.6l3.48-3.48a2.855 2.855 0 0 1 3.93 0l2.48 2.49.7-.7a2.845 2.845 0 0 1 3.93 0l3.48 3.47V10c-.002.265-.106.52-.29.71a1.013 1.013 0 0 1-.33.22 1 1 0 0 1-.38.08 1.04 1.04 0 0 1-.71-.3 1.006 1.006 0 0 1 0-1.41c.047-.046.097-.09.15-.13l.18-.09.18-.06c.195-.036.396-.015.58.06.374.153.619.516.62.92V7.81c-.319.114-.65.194-1 .194z" class="colorb2b1ff svgShape"></path></svg>